<svg xmlns="http://www.w3.org/2000/svg" xmlns:xlink="http://www.w3.org/1999/xlink" width="512" height="512" viewBox="0 0 512 512"><defs><clipPath id="b"><rect width="512" height="512"/></clipPath></defs><g id="a" clip-path="url(#b)"><rect width="512" height="512" fill="transparent"/><g transform="translate(58.248 73.833)"><path d="M24.734,61.881c14.783,5.446,31.9-1.556,37.347-16.339a29.184,29.184,0,0,0-17.9-37.347h0A28.228,28.228,0,0,0,7.617,25.312,28.568,28.568,0,0,0,24.734,61.881Z" transform="translate(27.965 31.528)" fill="#0075ab"/><path d="M390.379,15.243a13.933,13.933,0,0,0-17.9-5.446L196.641,108.61c-.778-.778-1.556-.778-2.334-1.556-11.671-4.668-25.676,1.556-30.345,13.227-4.668,12.449,1.556,25.676,14.005,29.566,11.671,4.668,25.676-1.556,30.345-13.227.778-1.556.778-3.89,1.556-5.446l40.459-22.564c3.112,7,4.668,14.783,5.446,23.342,1.556,36.569-26.454,67.692-63.023,70.8a70.957,70.957,0,0,1-77.806-60.689c-2.334-18.674,3.112-36.569,14.005-51.352a69.871,69.871,0,0,1,46.684-26.454c16.339-2.334,21.008-.778,38.125,5.446,10.115,3.89,21.786-1.556,24.9-11.671,3.89-10.115-1.556-21.786-11.671-24.9h0c-17.9-7.781-37.347-10.893-56.8-7.781-28.788,3.112-54.465,17.9-72.36,41.237-17.9,22.564-25.676,51.352-22.564,80.141,7,55.243,54.465,95.7,109.707,94.924a44.365,44.365,0,0,0,10.115-.778c57.577-4.668,100.37-53.686,98.814-111.263-.778-14.005-3.89-28.01-10.115-40.459L305.57,76.71A140.537,140.537,0,0,1,310.239,183.3C283.785,255.665,205.2,291.455,133.618,265c-66.135-25.676-102.7-97.258-84.031-165.728C52.7,87.6,46.475,75.932,34.8,72.819h0C23.133,69.707,11.462,75.932,8.35,87.6h0A181.151,181.151,0,0,0,118.835,305.461a174.086,174.086,0,0,0,63.023,11.671A180.315,180.315,0,0,0,350.7,200.422c17.117-46.684,14.783-98.036-7-142.386l41.237-23.342c6.225-4.668,8.559-13.227,5.446-19.452Z" transform="translate(0 45.488)" fill="#0075ab"/><path d="M42.922,50.616A135.846,135.846,0,0,1,132.4,52.95a144,144,0,0,1,28.788,14.783c3.89,2.334,7.781,3.89,11.671,3.89a22.839,22.839,0,0,0,17.9-9.337c6.225-10.115,3.89-23.342-5.446-29.566h0a212.436,212.436,0,0,0-37.347-19.452C110.614-.737,69.377-2.293,31.251,10.156c-10.893,3.89-17.9,15.561-14.005,26.454h0c2.334,11.671,14.783,17.9,25.676,14.005Z" transform="translate(97.698 0)" fill="#0075ab"/></g></g></svg>